<?xml version="1.0" standalone="no"?>
<!DOCTYPE svg PUBLIC "-//W3C//DTD SVG 20010904//EN"
 "http://www.w3.org/TR/2001/REC-SVG-20010904/DTD/svg10.dtd">
<svg version="1.0" xmlns="http://www.w3.org/2000/svg"
 width="186.000000pt" height="186.000000pt" viewBox="0 0 186.000000 186.000000"
 preserveAspectRatio="xMidYMid meet">
<metadata>
Created by potrace 1.11, written by Peter Selinger 2001-2013
</metadata>
<g transform="translate(0.000000,186.000000) scale(0.100000,-0.100000)"
fill="#000000" stroke="none">
<path d="M815 1811 c-195 -33 -352 -111 -492 -244 -117 -111 -201 -256 -244
-418 -32 -120 -32 -318 0 -438 85 -319 324 -557 645 -643 115 -31 317 -31 432
0 322 86 560 324 646 646 17 64 22 109 22 216 0 107 -5 152 -22 216 -86 322
-328 564 -645 645 -90 23 -262 33 -342 20z m249 -391 c64 -24 137 -85 171
-144 l25 -43 59 16 c49 12 67 13 114 2 71 -16 137 -60 182 -121 52 -71 68
-127 63 -218 -6 -96 -28 -142 -103 -210 -127 -116 -289 -105 -408 28 l-47 52
-47 -16 c-94 -32 -238 -15 -316 38 l-37 25 -50 -22 c-43 -19 -56 -32 -90 -91
-22 -38 -39 -71 -36 -73 2 -2 49 5 104 17 220 44 444 12 522 -77 58 -66 37
-103 -97 -172 -54 -28 -98 -49 -99 -48 -1 1 2 11 6 23 5 13 33 31 77 50 99 41
113 52 113 85 0 57 -74 101 -203 118 -158 22 -303 10 -431 -34 -39 -14 -72
-22 -74 -20 -3 2 13 26 34 51 52 63 94 126 94 142 0 8 -15 12 -42 12 -91 0
-195 77 -242 179 -29 63 -28 186 2 253 72 162 254 227 383 137 26 -18 27 -18
71 16 24 19 62 41 84 49 58 22 154 20 218 -4z"/>
<path d="M870 1411 c-39 -12 -84 -38 -119 -67 l-31 -26 -52 26 c-68 34 -128
34 -196 0 -59 -29 -106 -79 -136 -143 -29 -65 -29 -180 1 -237 32 -61 69 -101
121 -131 38 -22 57 -27 111 -26 37 0 83 8 105 17 l39 16 -21 23 c-24 25 -62
104 -61 127 0 8 9 -5 20 -30 36 -81 117 -145 223 -175 105 -31 206 -10 306 63
l35 26 -32 -35 c-18 -19 -33 -42 -33 -51 0 -9 20 -34 46 -56 113 -101 268 -94
377 15 55 54 77 108 77 186 0 122 -58 225 -153 271 -70 35 -130 41 -192 22
-46 -15 -51 -15 -60 0 -59 95 -129 154 -209 179 -52 16 -124 18 -166 6z"/>
</g>
</svg>
